<svg xmlns="http://www.w3.org/2000/svg" viewBox="0 0 960 470" width="960" height="470"><g transform="translate(480,235)"><rect x="-480" y="-235" width="960" height="470" fill="#F7F5EF"/></g><text x="480" y="442" font-family="Inter, system-ui, sans-serif" font-weight="700" font-size="16" fill="#6E6A60" text-anchor="middle" dominant-baseline="central">A prospect does not care that you have three widgets. They care about this.</text><g transform="translate(480,172)"><rect x="-130" y="-42" width="260" height="84" rx="14" fill="#1A3B26"/></g><g transform="translate(760,288)"><rect x="-1.25" y="-18.5" width="2.5" height="37" fill="#1A3B26"/></g><g transform="translate(760,311) rotate(180)"><polygon points="0,-7.2 7.2,7.2 -7.2,7.2" fill="#1A3B26"/></g><g transform="translate(480,288)"><rect x="-1.25" y="-18.5" width="2.5" height="37" fill="#1A3B26"/></g><g transform="translate(480,311) rotate(180)"><polygon points="0,-7.2 7.2,7.2 -7.2,7.2" fill="#1A3B26"/></g><g transform="translate(200,288)"><rect x="-1.25" y="-18.5" width="2.5" height="37" fill="#1A3B26"/></g><g transform="translate(200,311) rotate(180)"><polygon points="0,-7.2 7.2,7.2 -7.2,7.2" fill="#1A3B26"/></g><g transform="translate(480,288)"><rect x="-280" y="-1.25" width="560" height="2.5" fill="#1A3B26"/></g><g transform="translate(480,251)"><rect x="-1.25" y="-37" width="2.5" height="74" fill="#1A3B26"/></g><g transform="translate(760,372)"><rect x="-120" y="-48" width="240" height="96" rx="14" fill="#F7F5EF" stroke="#D8D3C7" stroke-width="2"/></g><g transform="translate(480,372)"><rect x="-120" y="-48" width="240" height="96" rx="14" fill="#F7F5EF" stroke="#D8D3C7" stroke-width="2"/></g><g transform="translate(200,372)"><rect x="-120" y="-48" width="240" height="96" rx="14" fill="#F7F5EF" stroke="#D8D3C7" stroke-width="2"/></g><text x="760" y="372" font-family="Inter, system-ui, sans-serif" font-weight="700" font-size="17" fill="#1A1A18" text-anchor="middle" dominant-baseline="central">News and filings</text><text x="480" y="372" font-family="Inter, system-ui, sans-serif" font-weight="700" font-size="17" fill="#1A1A18" text-anchor="middle" dominant-baseline="central">Fundamentals</text><text x="200" y="372" font-family="Inter, system-ui, sans-serif" font-weight="700" font-size="17" fill="#1A1A18" text-anchor="middle" dominant-baseline="central">Price chart</text><text x="480" y="186" font-family="Inter, system-ui, sans-serif" font-weight="700" font-size="30" fill="#EDF2EE" text-anchor="middle" dominant-baseline="central" opacity="0">NDAQ</text><text x="480" y="186" font-family="Inter, system-ui, sans-serif" font-weight="700" font-size="30" fill="#EDF2EE" text-anchor="middle" dominant-baseline="central">LSEG</text><text x="480" y="152" font-family="Inter, system-ui, sans-serif" font-weight="700" font-size="15" fill="#B9C7BC" text-anchor="middle" dominant-baseline="central">ticker</text><text x="480" y="78" font-family="Inter, system-ui, sans-serif" font-weight="700" font-size="16" fill="#6E6A60" text-anchor="middle" dominant-baseline="central">Widgets that share a parameter name update together. This is the demo.</text><text x="480" y="44" font-family="Inter, system-ui, sans-serif" font-weight="700" font-size="30" fill="#1A1A18" text-anchor="middle" dominant-baseline="central">One field moves everything</text></svg>
